<?xml version="1.0" encoding="utf-8"?>
<!-- Generator: Adobe Illustrator 18.0.0, SVG Export Plug-In . SVG Version: 6.00 Build 0)  -->
<!DOCTYPE svg PUBLIC "-//W3C//DTD SVG 1.1//EN" "http://www.w3.org/Graphics/SVG/1.1/DTD/svg11.dtd">
<svg version="1.1" id="Layer_1" xmlns="http://www.w3.org/2000/svg" xmlns:xlink="http://www.w3.org/1999/xlink" x="0px" y="0px"
	 width="600px" height="600px" viewBox="0 0 600 600" enable-background="new 0 0 600 600" xml:space="preserve">
<g>
	<path id="Instapaper" d="M411.3,475.8c0-3.1-2.4-5.7-5.5-5.9c-27.5-2.3-45.5-6.8-54-13.4c-9.1-7-13.6-25.1-13.6-54.2V197.7
		c0-27.8,4.5-45.8,13.6-53.8c8.5-7.5,26.5-12.2,53.9-13.9c3.1-0.2,5.6-2.8,5.6-5.9v-18.1c0-3.3-2.7-5.9-5.9-5.9H194.7
		c-3.3,0-5.9,2.7-5.9,5.9v18.1c0,3.1,2.4,5.7,5.6,5.9c27.4,1.8,45.4,6.4,53.9,13.9c9.1,8,13.6,25.9,13.6,53.8v204.6
		c0,29.1-4.5,47.2-13.6,54.2c-8.5,6.6-26.5,11-54.1,13.4c-3.1,0.3-5.5,2.8-5.5,5.9v18.3c0,3.3,2.7,5.9,5.9,5.9h210.7
		c3.3,0,5.9-2.7,5.9-5.9V475.8z"/>
</g>
</svg>
