<?xml version="1.0" encoding="utf-8"?>
<!-- Generator: Adobe Illustrator 18.1.0, SVG Export Plug-In . SVG Version: 6.00 Build 0)  -->
<!DOCTYPE svg PUBLIC "-//W3C//DTD SVG 1.1//EN" "http://www.w3.org/Graphics/SVG/1.1/DTD/svg11.dtd">
<svg version="1.1" id="Layer_1" xmlns="http://www.w3.org/2000/svg" xmlns:xlink="http://www.w3.org/1999/xlink" x="0px" y="0px"
	 width="245.6px" height="89.2px" viewBox="0 0 245.6 89.2" enable-background="new 0 0 245.6 89.2" xml:space="preserve">
<g>
	<polygon fill="#FFFFFF" points="96.6,5.9 96.6,32.3 90.6,32.3 90.6,5.9 84.8,5.9 84.8,0.7 102.3,0.7 102.3,5.9 	"/>
	<polygon fill="#FFFFFF" points="116.8,32.3 116.8,19.3 110.2,19.3 110.2,32.3 104.3,32.3 104.3,0.7 110.2,0.7 110.2,14.1 
		116.8,14.1 116.8,0.7 122.7,0.7 122.7,32.3 	"/>
	<polygon fill="#FFFFFF" points="126.4,32.3 126.4,0.7 141.5,0.7 141.5,5.7 132.3,5.7 132.3,13.6 138.7,13.6 138.7,18.2 132.3,18.2 
		132.3,27 141.5,27 141.5,32.3 	"/>
	<polygon fill="#FFFFFF" points="162,5.9 162,32.3 156.1,32.3 156.1,5.9 150.2,5.9 150.2,0.7 167.8,0.7 167.8,5.9 	"/>
	<polygon fill="#FFFFFF" points="170.3,32.3 170.3,0.7 185.4,0.7 185.4,5.7 176.2,5.7 176.2,13.6 182.6,13.6 182.6,18.2 176.2,18.2 
		176.2,27 185.4,27 185.4,32.3 	"/>
	<polygon fill="#FFFFFF" points="200.7,32.3 197,21.4 193,32.3 187.2,32.3 193.8,16.3 187.6,0.7 193.8,0.7 197.3,11.6 201.1,0.7 
		206.9,0.7 200.5,15.9 206.9,32.3 	"/>
	<path fill="#FFFFFF" d="M221.4,32.3l-1-6.2h-5.6l-1.1,6.2h-5.5l6.4-31.6h6.6l6.3,31.6H221.4z M217.7,9.2l-2.1,12.2h4L217.7,9.2z"/>
	<path fill="#FFFFFF" d="M236.9,33c-5.4,0-8.8-3.2-8.8-8.2v-2.2h5.4v1.9c0,2.3,1.1,3.6,3.2,3.6c2.1,0,3.1-1.2,3.1-3.2
		c0-2.5-1.6-4.2-4.8-6.5c-3.2-2.3-6.7-5.5-6.7-9.9c0-4.6,3-8.5,8.6-8.5c5,0,8.3,3.4,8.3,8.1v2H240V8.3c0-1.9-1-3.4-3-3.4
		c-1.7,0-2.9,1.1-2.9,2.8c0,2.7,1.6,4,5.1,6.6c3.7,2.8,6.4,5.7,6.4,9.9C245.6,29.3,242.1,33,236.9,33"/>
	<polygon fill="#FFFFFF" points="99.2,45.6 99.2,77.9 91.9,77.9 91.9,45.6 84.8,45.6 84.8,39.2 106.3,39.2 106.3,45.6 	"/>
	<path fill="#FFFFFF" d="M127.2,78.2c-2.8,0-3.9-2.3-3.9-5.7v-7.3c0-1.8-0.9-3.3-3-3.3h-3.8v16h-7.2V39.2h11.9c5.3,0,8.8,3,8.8,8.4
		v5.5c0,2.9-1.3,5.1-4.4,6c3,0.8,4.5,3.4,4.5,5.9v7.1c0,1.8,0.5,3,1.4,4v2.1H127.2z M123,48c0-1.7-0.8-2.8-2.6-2.8h-3.9v11.4h3.7
		c1.9,0,2.8-1,2.8-3.1V48z"/>
	<rect x="135.8" y="39.2" fill="#FFFFFF" width="7.2" height="38.7"/>
	<path fill="#FFFFFF" d="M161,77.9h-12.2V39.2h12.1c5.3,0,8.5,2.8,8.5,8.2v4.2c0,3.3-1.3,5.8-4.6,6.5c3.5,0.9,4.8,3.3,4.8,6.6v5
		C169.6,75.2,166.3,77.9,161,77.9 M162.5,48c0-1.7-0.8-2.8-2.6-2.8h-3.9v10.6h3.6c1.9,0,2.8-1,2.8-3V48z M162.6,64.2
		c0-2-1-3.1-2.8-3.1h-3.7V72h4.1c1.8,0,2.5-1,2.5-2.8V64.2z"/>
	<path fill="#FFFFFF" d="M184.8,78.8c-6.3,0-10.9-4-10.9-9.8V39.3h7.3V69c0,2.3,1.3,3.5,3.6,3.5c2.4,0,3.7-1.3,3.7-3.5V39.3h7V69
		C195.5,74.8,191.1,78.8,184.8,78.8"/>
	<polygon fill="#FFFFFF" points="216.7,77.9 209.2,61.4 206.5,55.3 206.5,77.9 199.9,77.9 199.9,39.2 206.1,39.2 213.2,56 
		215.8,62.2 215.8,39.2 222.3,39.2 222.3,77.9 	"/>
	<polygon fill="#FFFFFF" points="227.1,77.9 227.1,39.2 245.6,39.2 245.6,45.5 234.3,45.5 234.3,55 242.1,55 242.1,60.7 234.3,60.7 
		234.3,71.5 245.6,71.5 245.6,77.9 	"/>
	<path fill="#FFC200" d="M77.4,78.1H17.8L0,89.2V0.7h77.4V78.1z M31.3,29.3L11,30.2l15.8,12.7l-5.4,19.6l17-11.2l17,11.2L50,42.9
		l15.8-12.7l-20.3-0.9l-7.2-19L31.3,29.3z"/>
</g>
</svg>
